<svg xmlns="http://www.w3.org/2000/svg" viewBox="0 0 64 64" width="64" height="64">
  <!-- 左侧草叶：向左弯曲，中绿色 -->
  <path d="M32 64 C18 48 10 28 8 16 C16 28 24 44 32 64Z" fill="#43A047"/>
  <!-- 中间草叶：直立最高，深绿色 -->
  <path d="M30 64 C28 38 30 12 32 4 C34 12 36 38 34 64Z" fill="#2E7D32"/>
  <!-- 右侧草叶：向右弯曲，亮绿色 -->
  <path d="M32 64 C46 48 54 28 56 16 C48 28 40 44 32 64Z" fill="#66BB6A"/>
  <!-- 左侧小叶片：增加层次感 -->
  <path d="M28 64 C18 52 12 36 10 26 C16 34 22 48 28 64Z" fill="#388E3C"/>
  <!-- 右侧小叶片：增加层次感 -->
  <path d="M36 64 C46 52 52 36 54 26 C48 34 42 48 36 64Z" fill="#4CAF50"/>
</svg>
